<svg id="svg" xmlns="http://www.w3.org/2000/svg" xmlns:xlink="http://www.w3.org/1999/xlink" width="400" height="400" viewBox="0, 0, 400,400" version="1.1"><g id="svgg"><path id="path0" d="M169.643 88.674 C 92.567 121.002,114.641 234.889,198.000 234.979 C 279.388 235.068,304.051 124.796,230.350 90.334 C 213.838 82.613,185.913 81.850,169.643 88.674 M189.178 97.001 C 188.488 99.752,187.414 106.277,186.792 111.501 C 185.001 126.531,184.553 127.203,179.448 122.508 C 177.002 120.257,170.724 115.734,165.498 112.455 C 154.423 105.507,154.964 104.447,173.449 96.845 C 188.515 90.650,190.767 90.672,189.178 97.001 M228.358 99.208 C 237.427 103.778,242.220 108.000,238.338 108.000 C 237.294 108.000,230.977 112.022,224.299 116.938 L 212.158 125.875 210.944 118.438 C 208.376 102.699,207.667 98.880,206.652 95.297 C 205.304 90.544,214.424 92.187,228.358 99.208 M201.920 116.278 C 204.003 130.524,203.907 132.950,201.150 135.707 C 194.797 142.060,191.862 135.104,194.100 119.000 C 197.474 94.722,198.705 94.294,201.920 116.278 M237.747 122.500 C 222.887 143.841,215.397 149.967,212.713 142.975 C 211.182 138.984,214.587 135.087,228.720 124.653 C 242.766 114.283,243.608 114.082,237.747 122.500 M151.699 127.500 C 155.204 132.725,159.449 138.925,161.132 141.278 C 164.142 145.485,163.966 145.594,150.596 147.865 C 143.118 149.135,135.513 150.617,133.696 151.159 C 129.135 152.520,132.314 138.272,139.198 126.500 C 145.238 116.172,144.035 116.075,151.699 127.500 M171.342 127.500 C 180.381 134.281,183.862 138.139,183.503 140.980 C 182.536 148.626,176.838 146.317,167.706 134.578 C 152.049 114.449,152.576 113.422,171.342 127.500 M259.525 131.563 C 266.146 147.327,266.880 152.549,262.272 151.086 C 258.526 149.897,236.604 146.035,233.466 146.012 C 232.623 146.005,236.223 139.805,241.466 132.233 C 252.121 116.847,253.326 116.802,259.525 131.563 M201.920 154.904 C 205.755 159.524,203.628 165.000,198.000 165.000 C 194.830 165.000,192.806 163.709,192.362 161.404 C 191.670 157.808,195.152 152.000,198.000 152.000 C 198.831 152.000,200.595 153.307,201.920 154.904 M174.000 157.000 C 179.116 163.164,173.461 165.451,157.748 163.575 C 138.314 161.254,134.257 158.764,147.080 157.028 C 152.536 156.290,157.900 155.377,159.000 155.001 C 164.085 153.259,171.743 154.280,174.000 157.000 M253.655 157.889 C 258.682 159.263,258.750 159.431,254.791 160.717 C 244.360 164.106,223.909 165.300,221.708 162.648 C 215.155 154.752,232.639 152.147,253.655 157.889 M158.570 172.000 L 166.268 172.000 159.361 180.500 C 155.562 185.175,150.648 192.005,148.440 195.679 L 144.426 202.357 138.385 189.679 C 135.062 182.705,131.833 174.661,131.209 171.803 L 130.076 166.606 140.474 169.303 C 146.193 170.786,154.336 172.000,158.570 172.000 M265.135 172.000 C 264.511 174.200,263.457 178.025,262.792 180.500 C 262.128 182.975,259.365 188.867,256.653 193.594 L 251.721 202.188 244.060 190.336 C 239.847 183.817,235.409 177.871,234.200 177.123 C 229.794 174.401,232.174 171.995,239.500 171.763 C 243.625 171.633,249.700 170.840,253.000 170.000 C 263.936 167.217,266.377 167.620,265.135 172.000 M184.000 177.759 C 184.000 181.390,173.398 191.260,161.000 199.171 L 155.000 203.000 158.779 197.000 C 170.969 177.648,184.000 167.706,184.000 177.759 M230.791 187.092 C 236.176 194.238,240.195 200.471,239.724 200.943 C 237.733 202.934,212.000 181.491,212.000 177.841 C 212.000 169.374,220.647 173.631,230.791 187.092 M201.647 183.739 C 203.783 185.094,203.873 188.440,202.116 201.073 C 198.896 224.225,197.098 224.420,194.336 201.917 C 192.187 184.415,194.326 179.098,201.647 183.739 M186.641 206.441 C 187.308 212.249,188.441 219.025,189.160 221.500 C 191.079 228.110,183.547 227.453,167.929 219.649 C 156.921 214.148,155.702 213.010,158.828 211.149 C 160.813 209.967,167.063 205.718,172.718 201.707 C 184.998 192.996,185.101 193.031,186.641 206.441 M230.500 206.301 C 242.191 214.143,242.436 213.018,227.500 220.083 C 212.613 227.126,205.129 227.894,206.939 222.194 C 207.932 219.062,211.948 196.846,211.988 194.256 C 211.995 193.847,214.025 194.956,216.500 196.720 C 218.975 198.485,225.275 202.796,230.500 206.301 M106.000 286.000 C 106.000 306.667,106.242 308.000,110.000 308.000 C 113.622 308.000,114.000 306.667,114.000 293.882 C 114.000 284.979,114.739 280.221,116.000 281.000 C 117.100 281.680,118.000 288.033,118.000 295.118 C 118.000 306.667,118.414 308.000,122.000 308.000 C 125.594 308.000,126.000 306.667,126.000 294.869 C 126.000 280.036,123.666 274.000,117.930 274.000 C 115.071 274.000,114.000 272.637,114.000 269.000 C 114.000 265.333,112.933 264.000,110.000 264.000 C 106.242 264.000,106.000 265.333,106.000 286.000 M224.000 286.000 C 224.000 304.222,224.515 308.000,227.000 308.000 C 229.485 308.000,230.000 304.222,230.000 286.000 C 230.000 267.778,229.485 264.000,227.000 264.000 C 224.515 264.000,224.000 267.778,224.000 286.000 M372.000 272.750 C 372.000 285.482,374.104 294.000,377.250 294.000 C 379.339 294.000,380.000 290.394,380.000 279.000 C 380.000 265.333,379.644 264.000,376.000 264.000 C 372.610 264.000,372.000 265.333,372.000 272.750 M72.965 270.500 C 68.190 284.807,73.604 310.115,80.845 307.336 C 84.288 306.015,85.235 300.000,82.000 300.000 C 80.900 300.000,80.000 295.500,80.000 290.000 C 80.000 284.500,80.900 280.000,82.000 280.000 C 83.100 280.000,84.000 278.650,84.000 277.000 C 84.000 275.350,83.100 274.000,82.000 274.000 C 80.900 274.000,80.000 272.200,80.000 270.000 C 80.000 264.557,74.825 264.925,72.965 270.500 M356.965 270.500 C 352.190 284.807,357.604 310.115,364.845 307.336 C 368.288 306.015,369.235 300.000,366.000 300.000 C 364.900 300.000,364.000 295.500,364.000 290.000 C 364.000 284.500,364.900 280.000,366.000 280.000 C 367.100 280.000,368.000 278.650,368.000 277.000 C 368.000 275.350,367.100 274.000,366.000 274.000 C 364.900 274.000,364.000 272.200,364.000 270.000 C 364.000 264.557,358.825 264.925,356.965 270.500 M20.000 288.000 C 20.000 304.444,20.533 308.000,23.000 308.000 C 25.266 308.000,26.039 305.430,26.158 297.500 C 26.318 286.831,26.700 286.690,28.863 296.500 C 30.596 304.358,35.260 303.290,37.595 294.500 L 39.587 287.000 39.793 297.500 C 39.949 305.408,40.741 308.000,43.000 308.000 C 45.467 308.000,46.000 304.444,46.000 288.000 C 46.000 268.134,45.967 268.000,41.123 268.000 C 36.850 268.000,36.058 269.177,34.732 277.500 L 33.218 287.000 31.393 277.500 C 29.822 269.323,28.901 268.000,24.784 268.000 C 20.058 268.000,20.000 268.241,20.000 288.000 M140.000 288.223 L 140.000 308.445 147.500 307.097 C 165.637 303.836,166.031 268.000,147.930 268.000 L 140.000 268.000 140.000 288.223 M52.400 276.400 C 49.353 279.447,49.271 286.000,52.280 286.000 C 53.533 286.000,55.755 284.425,57.216 282.500 C 59.705 279.221,59.877 279.254,59.936 283.026 C 59.973 285.322,58.067 287.899,55.500 289.026 C 52.222 290.464,50.834 292.990,50.389 298.330 C 49.737 306.164,51.103 307.223,62.500 307.717 L 68.000 307.955 68.000 293.378 C 68.000 277.975,66.154 274.000,59.000 274.000 C 56.690 274.000,53.720 275.080,52.400 276.400 M88.070 277.869 C 82.517 288.246,87.060 308.000,95.000 308.000 C 98.564 308.000,104.000 302.478,104.000 298.857 C 104.000 295.344,96.719 295.044,95.325 298.500 C 94.770 299.875,94.349 296.050,94.390 290.000 C 94.431 283.950,94.876 280.575,95.379 282.500 C 96.606 287.198,104.000 287.112,104.000 282.400 C 104.000 274.137,91.908 270.698,88.070 277.869 M151.590 286.338 C 152.021 294.389,151.347 298.052,149.090 299.925 C 146.352 302.198,146.000 300.849,146.000 288.078 C 146.000 270.321,150.655 268.873,151.590 286.338 M164.070 277.869 C 156.362 292.271,164.832 311.977,176.131 305.930 C 180.687 303.491,181.342 296.000,177.000 296.000 C 175.350 296.000,174.000 296.900,174.000 298.000 C 174.000 299.100,173.100 300.000,172.000 300.000 C 170.900 300.000,170.000 298.200,170.000 296.000 C 170.000 293.067,171.333 292.000,175.000 292.000 C 179.323 292.000,180.000 291.107,180.000 285.400 C 180.000 274.501,168.725 269.170,164.070 277.869 M181.162 279.500 C 187.008 305.457,187.886 308.000,191.000 308.000 C 193.970 308.000,194.765 306.071,198.000 291.000 C 199.181 285.500,200.624 279.425,201.208 277.500 C 201.974 274.976,201.149 274.000,198.252 274.000 C 195.132 274.000,193.849 275.896,192.504 282.500 L 190.772 291.000 189.362 282.500 C 188.250 275.791,187.107 274.000,183.938 274.000 C 180.592 274.000,180.130 274.915,181.162 279.500 M204.070 277.869 C 196.362 292.271,204.832 311.977,216.131 305.930 C 220.687 303.491,221.342 296.000,217.000 296.000 C 215.350 296.000,214.000 296.900,214.000 298.000 C 214.000 299.100,213.100 300.000,212.000 300.000 C 210.900 300.000,210.000 298.200,210.000 296.000 C 210.000 293.067,211.333 292.000,215.000 292.000 C 219.323 292.000,220.000 291.107,220.000 285.400 C 220.000 274.501,208.725 269.170,204.070 277.869 M236.070 277.869 C 232.823 283.936,233.510 301.225,237.143 304.857 C 245.239 312.953,252.857 306.236,252.857 291.000 C 252.857 275.708,241.839 267.090,236.070 277.869 M256.000 295.121 C 256.000 314.667,256.255 316.000,260.000 316.000 C 262.590 316.000,264.000 314.667,264.000 312.217 C 264.000 309.875,265.858 307.967,268.879 307.209 C 281.553 304.028,277.619 275.214,264.429 274.621 L 256.000 274.242 256.000 295.121 M278.000 291.204 C 278.000 306.667,278.318 308.000,282.000 308.000 C 285.622 308.000,286.000 306.667,286.000 293.882 C 286.000 284.979,286.739 280.221,288.000 281.000 C 289.100 281.680,290.000 288.033,290.000 295.118 C 290.000 315.755,297.524 314.325,298.515 293.500 L 299.205 279.000 299.603 293.500 C 299.963 306.633,300.385 308.000,304.081 308.000 C 307.906 308.000,308.125 306.965,307.581 291.500 L 307.000 275.000 292.500 274.704 L 278.000 274.407 278.000 291.204 M314.400 276.400 C 309.581 281.219,311.356 303.792,316.747 306.249 C 322.768 308.992,330.000 305.544,330.000 299.930 C 330.000 295.535,326.058 294.742,322.400 298.400 C 320.533 300.267,320.000 299.822,320.000 296.400 C 320.000 293.040,321.182 292.000,325.000 292.000 C 329.323 292.000,330.000 291.107,330.000 285.400 C 330.000 277.801,326.999 274.000,321.000 274.000 C 318.690 274.000,315.720 275.080,314.400 276.400 M332.000 291.000 C 332.000 306.667,332.314 308.000,336.000 308.000 C 339.586 308.000,340.000 306.667,340.000 295.118 C 340.000 288.033,340.900 281.680,342.000 281.000 C 343.261 280.221,344.000 284.979,344.000 293.882 C 344.000 306.667,344.378 308.000,348.000 308.000 C 351.615 308.000,352.000 306.667,352.000 294.164 C 352.000 275.223,351.320 274.000,340.786 274.000 L 332.000 274.000 332.000 291.000 M173.969 286.500 C 173.986 287.325,173.100 288.000,172.000 288.000 C 170.900 288.000,170.014 285.975,170.031 283.500 C 170.060 279.206,173.880 282.116,173.969 286.500 M214.000 285.118 C 214.000 286.703,213.100 288.000,212.000 288.000 C 210.900 288.000,210.000 286.147,210.000 283.882 C 210.000 281.617,210.900 280.320,212.000 281.000 C 213.100 281.680,214.000 283.533,214.000 285.118 M246.000 290.000 C 246.000 294.270,245.100 298.320,244.000 299.000 C 242.766 299.763,242.000 296.315,242.000 290.000 C 242.000 283.685,242.766 280.237,244.000 281.000 C 245.100 281.680,246.000 285.730,246.000 290.000 M268.000 291.118 C 268.000 296.003,267.100 300.000,266.000 300.000 C 264.900 300.000,264.000 295.447,264.000 289.882 C 264.000 283.646,264.767 280.238,266.000 281.000 C 267.100 281.680,268.000 286.233,268.000 291.118 M372.787 298.834 C 371.079 303.284,373.283 308.000,377.070 308.000 C 379.358 308.000,380.086 306.482,379.633 302.654 C 378.908 296.532,374.594 294.124,372.787 298.834 " stroke="none" fill="#000000" fill-rule="evenodd"></path></g></svg>