<?xml version="1.0" encoding="UTF-8" standalone="no"?>
<!DOCTYPE svg PUBLIC "-//W3C//DTD SVG 1.1//EN" "http://www.w3.org/Graphics/SVG/1.1/DTD/svg11.dtd">
<svg version="1.1" xmlns="http://www.w3.org/2000/svg" xmlns:xlink="http://www.w3.org/1999/xlink" preserveAspectRatio="xMidYMid meet" viewBox="0 0 140 140" width="140" height="140"><defs><path d="M71.68 4.92L73.13 4.97L74.59 5.03L76.04 5.12L77.49 5.23L78.93 5.36L80.36 5.5L81.78 5.67L83.19 5.86L84.58 6.08L85.96 6.31L87.31 6.56L88.65 6.83L89.96 7.12L91.26 7.44L92.52 7.77L93.75 8.12L94.96 8.5L96.13 8.89L97.28 9.31L98.38 9.74L103.07 11.83L107.43 14.12L111.48 16.61L115.22 19.27L118.65 22.1L121.77 25.08L124.59 28.2L127.11 31.44L129.33 34.79L131.26 38.24L132.9 41.77L134.25 45.38L135.32 49.04L136.12 52.75L136.63 56.48L136.88 60.24L136.85 63.99L136.57 67.74L136.01 71.47L135.21 75.16L134.14 78.79L132.82 82.37L131.26 85.87L129.45 89.28L127.4 92.59L125.11 95.78L122.59 98.84L119.83 101.75L116.85 104.51L113.65 107.1L110.22 109.51L106.57 111.72L102.72 113.72L98.65 115.49L94.37 117.03L89.89 118.32L85.21 119.34L80.34 120.09L75.26 120.54L70 120.69L64.62 120.53L59.44 120.05L54.47 119.27L49.72 118.2L45.17 116.87L40.84 115.28L36.73 113.44L32.85 111.38L29.19 109.1L25.76 106.62L22.57 103.95L19.61 101.11L16.89 98.11L14.41 94.97L12.18 91.69L10.19 88.3L8.46 84.81L6.98 81.23L5.76 77.57L4.8 73.85L4.1 70.09L3.67 66.3L3.51 62.48L3.62 58.66L4.01 54.86L4.68 51.07L5.63 47.33L6.87 43.63L8.4 40L10.21 36.45L12.33 33L14.74 29.65L17.45 26.43L20.47 23.34L23.79 20.41L27.43 17.63L31.37 15.04L35.64 12.64L40.22 10.44L45.13 8.47L46.22 8.09L47.35 7.73L48.51 7.39L49.7 7.07L50.92 6.78L52.18 6.5L53.45 6.25L54.76 6.02L56.09 5.81L57.44 5.63L58.8 5.46L60.19 5.31L61.59 5.19L63.01 5.09L64.43 5.01L65.87 4.95L67.31 4.91L68.76 4.89L70.22 4.9L71.68 4.92ZM55.16 90.98L54.09 91.47L52.84 92.14L51.39 92.99L49.73 94L47.83 95.17L46.89 95.75L45.95 96.33L45.01 96.9L44.08 97.47L43.16 98.03L42.25 98.58L41.38 99.1L40.53 99.61L39.72 100.09L38.96 100.54L38.24 100.95L37.59 101.33L36.99 101.67L36.47 101.97L36.01 102.22L35.65 102.41L35.18 102.68L34.81 102.93L34.54 103.18L34.38 103.44L34.34 103.71L34.42 103.99L34.63 104.3L34.99 104.63L35.49 104.99L36.14 105.39L36.95 105.84L37.92 106.34L39.07 106.89L40.4 107.5L41.92 108.18L43.63 108.93L46.11 109.99L48.43 110.92L50.58 111.72L52.55 112.39L54.36 112.94L55.98 113.35L57.44 113.64L58.71 113.79L59.8 113.82L60.71 113.71L61.44 113.48L61.98 113.11L62.33 112.62L62.5 111.99L62.47 111.24L62.25 110.35L62.13 109.96L62 109.5L61.86 108.96L61.72 108.37L61.58 107.73L61.43 107.04L61.28 106.31L61.13 105.54L60.98 104.74L60.83 103.91L60.69 103.07L60.54 102.22L60.41 101.36L60.28 100.5L60.16 99.65L60.04 98.8L59.8 96.99L59.57 95.42L59.34 94.08L59.08 92.96L58.78 92.06L58.42 91.37L57.99 90.9L57.47 90.62L56.83 90.55L56.07 90.67L55.16 90.98ZM82.27 89.46L82.23 90L82.11 90.85L81.93 91.97L81.69 93.3L81.41 94.82L81.09 96.48L80.74 98.22L80.37 100.02L80 101.81L79.62 103.57L79.25 105.25L78.9 106.8L78.57 108.19L78.28 109.36L78.04 110.27L77.85 110.89L77.64 111.65L77.63 112.29L77.8 112.82L78.16 113.24L78.69 113.54L79.41 113.72L80.3 113.79L81.37 113.74L82.61 113.58L84.02 113.31L85.59 112.92L87.33 112.41L89.23 111.8L91.29 111.07L93.51 110.22L95.88 109.27L98.18 108.32L100.18 107.5L101.87 106.79L103.26 106.17L104.36 105.63L105.17 105.13L105.7 104.66L105.95 104.2L105.93 103.74L105.64 103.25L105.08 102.72L104.27 102.12L103.2 101.44L101.88 100.65L100.32 99.75L98.51 98.7L97.64 98.18L96.76 97.66L95.86 97.13L94.96 96.6L94.07 96.07L93.18 95.55L92.31 95.03L91.47 94.52L90.65 94.03L89.86 93.56L89.12 93.11L88.42 92.69L87.78 92.3L87.19 91.94L86.68 91.62L86.23 91.35L85.83 91.1L85.44 90.86L85.06 90.64L84.7 90.44L84.35 90.24L84.03 90.07L83.72 89.91L83.44 89.78L83.19 89.66L82.96 89.56L82.76 89.48L82.59 89.43L82.46 89.4L82.36 89.39L82.3 89.41L82.27 89.46ZM67.49 81.04L66.88 81.99L66.45 83.3L66.19 84.96L66.09 86.99L66.17 89.39L66.4 92.17L66.79 95.33L67.38 99.28L67.94 102.51L68.48 105.01L69.01 106.78L69.53 107.83L70.05 108.14L70.58 107.73L71.13 106.58L71.7 104.71L72.3 102.1L72.93 98.76L73.61 94.69L73.97 92.41L74.25 90.41L74.46 88.67L74.61 87.16L74.68 85.88L74.69 84.79L74.62 83.89L74.49 83.14L74.27 82.54L73.99 82.06L73.63 81.68L73.2 81.39L71.69 80.66L70.37 80.25L69.23 80.18L68.27 80.44L67.49 81.04ZM51.62 75.13L49.68 76.42L47.57 78.1L45.33 80.15L42.97 82.54L40.55 85.25L38.08 88.27L35.6 91.56L32.29 96.16L37.55 93.23L40.03 91.8L42.43 90.34L44.73 88.86L46.92 87.38L48.96 85.92L50.84 84.48L52.54 83.1L54.04 81.78L55.31 80.55L56.33 79.42L57.09 78.4L57.56 77.53L57.72 76.8L57.53 75.29L56.96 74.3L56.05 73.81L54.83 73.8L53.34 74.25L51.62 75.13ZM11.53 72.63L11.68 73.1L11.87 73.64L12.1 74.23L12.36 74.88L12.65 75.57L12.97 76.31L13.31 77.09L13.68 77.91L14.07 78.75L14.48 79.61L14.91 80.5L15.35 81.4L15.81 82.31L16.27 83.22L16.75 84.14L17.23 85.05L17.71 85.95L23.01 95.67L26.53 90.55L26.88 90.06L27.26 89.52L27.68 88.96L28.14 88.35L28.63 87.73L29.14 87.07L29.67 86.4L30.23 85.71L30.8 85.01L31.38 84.31L31.98 83.6L32.58 82.89L33.18 82.19L33.78 81.5L34.38 80.82L34.97 80.16L35.55 79.52L36.11 78.9L42.17 72.38L35.42 72.38L34.77 72.38L34.06 72.35L33.3 72.31L32.5 72.25L31.65 72.18L30.77 72.1L29.86 72L28.92 71.9L27.97 71.78L27.01 71.65L26.04 71.51L25.07 71.36L24.1 71.2L23.14 71.04L22.21 70.86L21.29 70.69L20.4 70.5L19.55 70.32L10.43 68.25L11.42 72.23L11.53 72.63ZM124.88 69.62L123.84 69.76L122.65 69.95L121.33 70.2L119.86 70.5L118.25 70.85L117.71 70.96L117.13 71.08L116.51 71.19L115.85 71.29L115.17 71.4L114.45 71.5L113.72 71.59L112.98 71.69L112.22 71.77L111.46 71.85L110.69 71.93L109.94 71.99L109.19 72.05L108.46 72.1L107.75 72.15L107.06 72.18L106.41 72.2L105.32 72.25L104.32 72.33L103.42 72.44L102.61 72.59L101.9 72.76L101.29 72.95L100.79 73.17L100.38 73.41L100.09 73.68L99.9 73.96L99.82 74.26L99.85 74.57L100 74.9L100.26 75.24L100.64 75.59L101.14 75.95L101.76 76.31L101.97 76.46L102.24 76.68L102.57 76.97L102.94 77.33L103.35 77.76L103.81 78.26L104.3 78.8L104.82 79.4L105.37 80.05L105.95 80.74L106.55 81.47L107.17 82.24L107.8 83.04L108.45 83.86L109.1 84.71L109.75 85.57L110.41 86.45L117.13 95.54L121.45 88.95L121.87 88.3L122.29 87.64L122.7 86.96L123.11 86.29L123.51 85.61L123.9 84.93L124.28 84.26L124.64 83.6L124.99 82.96L125.31 82.34L125.61 81.74L125.89 81.17L126.14 80.63L126.37 80.13L126.56 79.68L126.71 79.27L126.84 78.9L126.94 78.56L127.05 78.19L127.17 77.81L127.3 77.42L127.42 77.02L127.55 76.61L127.68 76.19L127.81 75.77L127.94 75.36L128.07 74.94L128.2 74.54L128.33 74.14L128.45 73.75L128.57 73.38L128.68 73.03L128.79 72.69L128.89 72.38L129.05 71.82L129.13 71.32L129.14 70.89L129.07 70.51L128.91 70.2L128.65 69.94L128.3 69.74L127.84 69.6L127.28 69.52L126.6 69.5L125.8 69.53L124.88 69.62ZM83.42 73.89L82.8 74.55L82.42 75.54L82.28 76.86L82.67 77.74L83.73 79.01L85.36 80.59L87.43 82.4L89.83 84.35L92.44 86.35L95.14 88.32L97.81 90.17L100.34 91.81L102.6 93.16L104.48 94.13L105.85 94.63L106.6 94.59L106.63 94.43L106.52 94.12L106.29 93.67L105.94 93.1L105.49 92.42L104.93 91.63L104.27 90.74L103.53 89.76L102.71 88.71L101.81 87.6L100.85 86.43L99.83 85.21L98.77 83.96L96.74 81.7L94.78 79.71L92.89 77.97L91.11 76.51L89.44 75.33L87.9 74.44L86.51 73.84L85.29 73.55L84.26 73.56L83.42 73.89ZM67.48 58.3L66.37 59.62L65.52 61.16L65.04 62.76L65.06 64.26L65.37 65.07L65.9 65.76L66.64 66.3L67.57 66.69L68.7 66.93L70 67.01L72.21 66.69L73.84 65.79L74.84 64.47L75.14 62.85L74.7 61.07L73.44 59.27L72.84 58.68L72.2 58.15L71.56 57.7L70.96 57.35L70.43 57.12L70 57.04L68.73 57.39L67.48 58.3ZM37.99 58.88L36.86 59.07L35.8 59.34L35.51 59.42L35.1 59.51L34.58 59.6L33.95 59.71L33.23 59.83L32.43 59.95L31.56 60.08L30.62 60.22L29.63 60.35L28.6 60.49L27.53 60.63L26.44 60.77L25.34 60.9L23.01 61.22L21.2 61.55L19.9 61.91L19.13 62.27L18.86 62.65L19.1 63.04L19.84 63.44L21.09 63.85L22.83 64.26L25.07 64.68L27.79 65.09L31 65.51L34.7 65.92L37.72 66.2L40.43 66.36L42.82 66.41L44.9 66.35L46.65 66.18L48.08 65.89L49.19 65.5L49.97 65L50.43 64.39L50.56 63.67L50.36 62.85L49.82 61.92L48.95 60.88L48.42 60.42L47.73 60.01L46.91 59.65L45.98 59.35L44.96 59.1L43.87 58.9L42.73 58.77L41.55 58.7L40.35 58.69L39.16 58.75L37.99 58.88ZM94.55 59.65L92.5 60.16L90.96 60.84L89.97 61.69L89.58 62.71L89.84 63.89L90.8 65.21L91.52 65.63L92.74 65.94L94.39 66.16L96.41 66.29L98.72 66.32L101.26 66.27L103.97 66.13L106.77 65.91L109.6 65.61L112.38 65.24L115.06 64.8L117.56 64.3L119.82 63.73L120.56 63.52L121.17 63.33L121.65 63.16L122 63.01L122.21 62.87L122.29 62.74L122.23 62.6L122.03 62.47L121.68 62.32L121.19 62.16L120.55 61.99L119.76 61.79L118.82 61.56L114.63 60.66L110.6 59.97L106.78 59.5L103.21 59.24L99.95 59.19L97.05 59.32L94.55 59.65ZM115.82 33.55L114.85 34.25L113.78 35.23L112.6 36.48L111.27 38.01L109.79 39.81L108.13 41.88L107.29 42.96L106.48 44L105.71 45.01L104.99 45.98L104.32 46.9L103.69 47.78L103.13 48.59L102.62 49.34L102.17 50.02L101.8 50.63L101.49 51.17L101.25 51.61L101.09 51.97L101.01 52.23L101.02 52.39L101.11 52.45L101.81 52.49L102.85 52.58L104.19 52.74L105.76 52.94L107.53 53.18L109.45 53.45L111.47 53.75L113.55 54.06L115.63 54.39L117.67 54.71L119.62 55.04L121.43 55.35L123.06 55.65L124.46 55.91L125.58 56.15L126.38 56.34L127.08 56.49L127.68 56.52L128.16 56.41L128.53 56.18L128.78 55.8L128.93 55.28L128.95 54.62L128.87 53.81L128.67 52.84L128.35 51.71L127.92 50.42L127.37 48.97L126.7 47.33L125.91 45.53L125 43.54L123.97 41.37L123 39.38L122.11 37.65L121.29 36.2L120.52 35.01L119.77 34.09L119.03 33.44L118.29 33.06L117.52 32.95L116.7 33.11L115.82 33.55ZM22.45 31.93L21.96 32.38L21.43 33.03L20.83 33.86L20.14 34.88L19.35 36.09L18.43 37.48L17.33 39.19L16.32 40.93L15.4 42.67L14.56 44.39L13.83 46.08L13.19 47.71L12.66 49.26L12.25 50.72L11.95 52.05L11.78 53.25L11.73 54.29L11.82 55.15L12.04 55.81L12.41 56.26L12.93 56.46L13.6 56.4L13.96 56.31L14.43 56.21L15 56.09L15.67 55.96L16.42 55.82L17.26 55.67L18.17 55.51L19.15 55.34L20.19 55.17L21.27 54.99L22.4 54.8L23.57 54.62L24.76 54.43L25.97 54.24L27.19 54.06L28.42 53.87L30.49 53.56L32.3 53.29L33.86 53.03L35.19 52.8L36.3 52.58L37.2 52.36L37.91 52.13L38.43 51.9L38.79 51.65L38.99 51.38L39.05 51.07L38.99 50.72L38.8 50.33L38.51 49.89L38.13 49.39L37.67 48.82L37.36 48.45L37.01 48.01L36.62 47.52L36.18 46.97L35.71 46.37L35.21 45.74L34.68 45.06L34.13 44.36L33.56 43.63L32.97 42.88L32.38 42.11L31.77 41.34L31.17 40.56L30.57 39.78L29.98 39.01L29.39 38.25L28.22 36.71L27.21 35.38L26.34 34.25L25.59 33.32L24.94 32.59L24.37 32.07L23.85 31.74L23.38 31.61L22.92 31.67L22.45 31.93ZM106.35 30.28L105.2 30.9L103.7 31.79L101.83 32.94L99.59 34.37L96.95 36.07L94.25 37.83L91.88 39.42L89.81 40.87L88.03 42.18L86.53 43.36L85.3 44.44L84.32 45.43L83.57 46.33L83.05 47.17L82.73 47.95L82.62 48.69L82.68 49.41L82.91 50.12L83.53 51.18L84.3 51.88L85.24 52.21L86.35 52.17L87.63 51.75L89.08 50.96L90.73 49.78L92.57 48.21L94.61 46.26L96.85 43.9L99.3 41.15L101.97 37.99L104.87 34.41L105.95 33.04L106.8 31.91L107.42 31.01L107.78 30.37L107.87 29.97L107.67 29.82L107.17 29.92L106.35 30.28ZM33.99 32.19L34.84 33.5L36.22 35.29L38.11 37.58L40.52 40.37L43.43 43.68L45.23 45.63L46.91 47.32L48.48 48.75L49.94 49.92L51.27 50.84L52.49 51.48L53.57 51.87L54.53 51.99L55.36 51.85L56.05 51.44L56.61 50.76L57.02 49.81L57.29 48.59L57.3 48.07L57.19 47.52L56.95 46.94L56.58 46.31L56.07 45.65L55.42 44.93L54.63 44.16L53.69 43.34L52.6 42.46L51.35 41.51L49.94 40.5L48.37 39.41L46.62 38.25L43.11 35.96L40.15 34.1L37.76 32.66L35.92 31.66L34.63 31.11L33.88 31L33.67 31.36L33.99 32.19ZM69.05 19.16L68.51 21.18L67.92 23.94L67.29 27.45L66.58 31.73L66.19 34.67L65.97 37.31L65.94 39.63L66.08 41.63L66.38 43.29L66.85 44.6L67.47 45.55L68.25 46.13L69.17 46.34L70.24 46.15L71.44 45.55L72.77 44.54L73.32 44.02L73.78 43.47L74.15 42.86L74.42 42.17L74.61 41.36L74.7 40.4L74.7 39.25L74.62 37.89L74.45 36.28L74.2 34.39L73.86 32.19L73.44 29.64L72.77 25.78L72.16 22.65L71.6 20.23L71.07 18.55L70.56 17.6L70.07 17.38L69.57 17.9L69.05 19.16ZM78.81 11.58L78.22 11.78L77.8 12.07L77.55 12.46L77.48 12.96L77.59 13.55L77.75 14.04L77.9 14.54L78.05 15.07L78.2 15.63L78.36 16.25L78.52 16.92L78.69 17.66L78.87 18.48L79.06 19.39L79.27 20.41L79.5 21.54L79.75 22.79L80.01 24.18L80.31 25.71L80.63 27.4L80.98 29.26L81.36 31.3L82.42 37L93.07 30.15L94.1 29.49L95.12 28.85L96.12 28.23L97.1 27.63L98.05 27.06L98.97 26.52L99.85 26.01L100.68 25.53L101.47 25.09L102.2 24.69L102.88 24.34L103.49 24.03L104.03 23.77L104.49 23.57L104.88 23.42L105.18 23.32L105.39 23.29L105.91 23.26L106.28 23.16L106.5 23.01L106.58 22.79L106.51 22.53L106.32 22.21L105.99 21.85L105.54 21.45L104.97 21.01L104.28 20.53L103.48 20.03L102.58 19.5L101.57 18.94L100.47 18.36L99.28 17.77L98 17.16L96.63 16.55L94.52 15.64L92.5 14.82L90.58 14.09L88.77 13.44L87.07 12.89L85.49 12.42L84.03 12.05L82.7 11.77L81.51 11.58L80.46 11.49L79.55 11.49L78.81 11.58ZM59.01 11.4L57.81 11.68L56.4 12.07L54.77 12.57L52.91 13.18L50.82 13.9L48.47 14.74L45.61 15.77L43.12 16.71L40.97 17.55L39.17 18.32L37.71 19.02L36.58 19.68L35.76 20.31L35.26 20.91L35.06 21.51L35.16 22.12L35.54 22.74L36.21 23.41L37.14 24.12L38.34 24.9L39.8 25.76L41.5 26.71L42.37 27.19L43.25 27.69L44.14 28.21L45.04 28.73L45.93 29.26L46.82 29.8L47.68 30.33L48.53 30.86L49.34 31.38L50.13 31.88L50.87 32.37L51.56 32.84L52.2 33.28L52.78 33.7L53.29 34.08L53.73 34.42L54.52 35.05L55.23 35.56L55.85 35.97L56.41 36.24L56.89 36.38L57.32 36.37L57.7 36.21L58.04 35.87L58.35 35.36L58.63 34.66L58.89 33.77L59.13 32.67L59.38 31.35L59.63 29.8L59.89 28.01L60.17 25.98L60.28 25.22L60.4 24.44L60.52 23.64L60.65 22.85L60.78 22.05L60.92 21.25L61.06 20.47L61.2 19.7L61.34 18.96L61.48 18.24L61.62 17.56L61.76 16.92L61.9 16.32L62.03 15.77L62.15 15.28L62.27 14.85L62.49 14L62.62 13.26L62.64 12.63L62.56 12.12L62.35 11.72L62 11.43L61.5 11.26L60.85 11.19L60.02 11.24L59.01 11.4Z" id="a2StWsfyKK"></path></defs><g><g><g><use xlink:href="#a2StWsfyKK" opacity="1" fill="#000000" fill-opacity="1"></use><g><use xlink:href="#a2StWsfyKK" opacity="1" fill-opacity="0" stroke="#000000" stroke-width="1" stroke-opacity="0"></use></g></g></g></g></svg>